<svg width="60" height="45" viewBox="0 0 60 45" fill="none" xmlns="http://www.w3.org/2000/svg">
<path fill-rule="evenodd" clip-rule="evenodd" d="M35 38.4375V7.96875C35 6.60375 34.995 5.71875 34.88 5.07C34.77 4.46062 34.5925 4.26938 34.45 4.1625C34.3075 4.05563 34.0525 3.9225 33.24 3.84C32.3725 3.75375 31.195 3.75 29.375 3.75C27.555 3.75 26.375 3.75375 25.51 3.84C24.6975 3.9225 24.4425 4.05563 24.3 4.1625C24.1575 4.26938 23.98 4.46062 23.87 5.07C23.755 5.72063 23.75 6.60375 23.75 7.96875V38.4375H35Z" fill="#FDA312"/>
<path opacity="0.7" d="M20.25 10.4062C20.25 10.0333 20.0525 9.6756 19.7008 9.41188C19.3492 9.14816 18.8723 9 18.375 9H10.875C10.3777 9 9.90081 9.14816 9.54917 9.41188C9.19754 9.6756 9 10.0333 9 10.4062V32.4375H20.25V10.4062ZM50.25 19.7812C50.25 19.4083 50.0525 19.0506 49.7008 18.7869C49.3492 18.5232 48.8723 18.375 48.375 18.375H40.875C40.3777 18.375 39.9008 18.5232 39.5492 18.7869C39.1975 19.0506 39 19.4083 39 19.7812V32.4375H50.25V19.7812Z" fill="#FDA312"/>
</svg>
