<svg width="218" height="45" viewBox="0 0 218 45" fill="none" xmlns="http://www.w3.org/2000/svg">
<path d="M139.208 32C138.611 32 138.152 31.744 137.832 31.232C137.512 30.72 137.48 30.176 137.736 29.6L146.728 8.128C147.048 7.38133 147.571 7.008 148.296 7.008C149.064 7.008 149.587 7.38133 149.864 8.128L158.888 29.664C159.123 30.2613 159.08 30.8053 158.76 31.296C158.461 31.7653 158.003 32 157.384 32C157.064 32 156.755 31.9147 156.456 31.744C156.179 31.552 155.976 31.296 155.848 30.976L147.912 11.264H148.808L140.744 30.976C140.595 31.3173 140.371 31.5733 140.072 31.744C139.795 31.9147 139.507 32 139.208 32ZM140.904 26.496L142.184 23.744H154.728L156.008 26.496H140.904ZM169.74 32.16C168.268 32.16 166.945 31.8507 165.772 31.232C164.62 30.592 163.703 29.664 163.02 28.448C162.359 27.232 162.028 25.7387 162.028 23.968V16.096C162.028 15.6267 162.177 15.2427 162.476 14.944C162.796 14.624 163.191 14.464 163.66 14.464C164.129 14.464 164.513 14.624 164.812 14.944C165.132 15.2427 165.292 15.6267 165.292 16.096V23.968C165.292 25.1627 165.516 26.1547 165.964 26.944C166.412 27.712 167.02 28.288 167.788 28.672C168.556 29.0347 169.42 29.216 170.38 29.216C171.297 29.216 172.108 29.0347 172.812 28.672C173.537 28.3093 174.113 27.8187 174.54 27.2C174.967 26.5813 175.18 25.888 175.18 25.12H177.196C177.196 26.4427 176.865 27.6373 176.204 28.704C175.564 29.7707 174.679 30.6133 173.548 31.232C172.439 31.8507 171.169 32.16 169.74 32.16ZM176.812 32C176.343 32 175.948 31.8507 175.628 31.552C175.329 31.232 175.18 30.8373 175.18 30.368V16.096C175.18 15.6053 175.329 15.2107 175.628 14.912C175.948 14.6133 176.343 14.464 176.812 14.464C177.303 14.464 177.697 14.6133 177.996 14.912C178.295 15.2107 178.444 15.6053 178.444 16.096V30.368C178.444 30.8373 178.295 31.232 177.996 31.552C177.697 31.8507 177.303 32 176.812 32ZM185.761 21.056C185.761 19.776 186.07 18.6347 186.689 17.632C187.329 16.608 188.182 15.7973 189.249 15.2C190.315 14.6027 191.489 14.304 192.769 14.304C194.049 14.304 194.998 14.5173 195.617 14.944C196.257 15.3493 196.502 15.84 196.353 16.416C196.289 16.7147 196.161 16.9493 195.969 17.12C195.798 17.2693 195.595 17.3653 195.361 17.408C195.126 17.4507 194.87 17.44 194.593 17.376C193.227 17.0987 192.001 17.0773 190.913 17.312C189.825 17.5467 188.961 17.984 188.321 18.624C187.702 19.264 187.393 20.0747 187.393 21.056H185.761ZM185.793 32C185.281 32 184.886 31.872 184.609 31.616C184.331 31.3387 184.193 30.9333 184.193 30.4V16.096C184.193 15.584 184.331 15.1893 184.609 14.912C184.886 14.6347 185.281 14.496 185.793 14.496C186.326 14.496 186.721 14.6347 186.977 14.912C187.254 15.168 187.393 15.5627 187.393 16.096V30.4C187.393 30.912 187.254 31.3067 186.977 31.584C186.721 31.8613 186.326 32 185.793 32ZM205.77 32.128C204.212 32.128 202.815 31.744 201.578 30.976C200.34 30.1867 199.359 29.1307 198.634 27.808C197.93 26.464 197.578 24.9493 197.578 23.264C197.578 21.5787 197.962 20.064 198.73 18.72C199.519 17.376 200.575 16.32 201.898 15.552C203.242 14.7627 204.746 14.368 206.41 14.368C208.074 14.368 209.567 14.7627 210.89 15.552C212.212 16.32 213.258 17.376 214.026 18.72C214.815 20.064 215.21 21.5787 215.21 23.264H213.962C213.962 24.9493 213.599 26.464 212.874 27.808C212.17 29.1307 211.199 30.1867 209.962 30.976C208.724 31.744 207.327 32.128 205.77 32.128ZM206.41 29.248C207.498 29.248 208.468 28.992 209.322 28.48C210.175 27.9467 210.847 27.232 211.338 26.336C211.828 25.4187 212.074 24.3947 212.074 23.264C212.074 22.112 211.828 21.088 211.338 20.192C210.847 19.2747 210.175 18.56 209.322 18.048C208.468 17.5147 207.498 17.248 206.41 17.248C205.343 17.248 204.372 17.5147 203.498 18.048C202.644 18.56 201.962 19.2747 201.45 20.192C200.959 21.088 200.714 22.112 200.714 23.264C200.714 24.3947 200.959 25.4187 201.45 26.336C201.962 27.232 202.644 27.9467 203.498 28.48C204.372 28.992 205.343 29.248 206.41 29.248ZM213.578 32.032C213.108 32.032 212.714 31.8827 212.394 31.584C212.095 31.264 211.946 30.8693 211.946 30.4V25.504L212.554 22.112L215.21 23.264V30.4C215.21 30.8693 215.05 31.264 214.73 31.584C214.431 31.8827 214.047 32.032 213.578 32.032Z" fill="#FDA312"/>
<path d="M62.208 32C61.6107 32 61.152 31.744 60.832 31.232C60.512 30.72 60.48 30.176 60.736 29.6L69.728 8.128C70.048 7.38133 70.5707 7.008 71.296 7.008C72.064 7.008 72.5867 7.38133 72.864 8.128L81.888 29.664C82.1227 30.2613 82.08 30.8053 81.76 31.296C81.4613 31.7653 81.0027 32 80.384 32C80.064 32 79.7547 31.9147 79.456 31.744C79.1787 31.552 78.976 31.296 78.848 30.976L70.912 11.264H71.808L63.744 30.976C63.5947 31.3173 63.3707 31.5733 63.072 31.744C62.7947 31.9147 62.5067 32 62.208 32ZM63.904 26.496L65.184 23.744H77.728L79.008 26.496H63.904ZM92.74 32.16C91.268 32.16 89.9453 31.8507 88.772 31.232C87.62 30.592 86.7027 29.664 86.02 28.448C85.3587 27.232 85.028 25.7387 85.028 23.968V16.096C85.028 15.6267 85.1773 15.2427 85.476 14.944C85.796 14.624 86.1907 14.464 86.66 14.464C87.1293 14.464 87.5133 14.624 87.812 14.944C88.132 15.2427 88.292 15.6267 88.292 16.096V23.968C88.292 25.1627 88.516 26.1547 88.964 26.944C89.412 27.712 90.02 28.288 90.788 28.672C91.556 29.0347 92.42 29.216 93.38 29.216C94.2973 29.216 95.108 29.0347 95.812 28.672C96.5373 28.3093 97.1133 27.8187 97.54 27.2C97.9667 26.5813 98.18 25.888 98.18 25.12H100.196C100.196 26.4427 99.8653 27.6373 99.204 28.704C98.564 29.7707 97.6787 30.6133 96.548 31.232C95.4387 31.8507 94.1693 32.16 92.74 32.16ZM99.812 32C99.3427 32 98.948 31.8507 98.628 31.552C98.3293 31.232 98.18 30.8373 98.18 30.368V16.096C98.18 15.6053 98.3293 15.2107 98.628 14.912C98.948 14.6133 99.3427 14.464 99.812 14.464C100.303 14.464 100.697 14.6133 100.996 14.912C101.295 15.2107 101.444 15.6053 101.444 16.096V30.368C101.444 30.8373 101.295 31.232 100.996 31.552C100.697 31.8507 100.303 32 99.812 32ZM115.129 32.128C113.465 32.128 111.961 31.744 110.617 30.976C109.294 30.1867 108.238 29.12 107.449 27.776C106.681 26.432 106.297 24.9173 106.297 23.232C106.297 21.5467 106.649 20.0427 107.353 18.72C108.078 17.376 109.059 16.32 110.297 15.552C111.534 14.7627 112.931 14.368 114.489 14.368C115.747 14.368 116.91 14.6347 117.977 15.168C119.043 15.68 119.939 16.384 120.665 17.28V8.64C120.665 8.14933 120.814 7.75467 121.113 7.456C121.433 7.15733 121.827 7.008 122.297 7.008C122.787 7.008 123.182 7.15733 123.481 7.456C123.779 7.75467 123.929 8.14933 123.929 8.64V23.232C123.929 24.9173 123.534 26.432 122.745 27.776C121.977 29.12 120.931 30.1867 119.609 30.976C118.286 31.744 116.793 32.128 115.129 32.128ZM115.129 29.248C116.217 29.248 117.187 28.992 118.041 28.48C118.894 27.9467 119.566 27.2213 120.057 26.304C120.547 25.3867 120.793 24.3627 120.793 23.232C120.793 22.08 120.547 21.056 120.057 20.16C119.566 19.264 118.894 18.56 118.041 18.048C117.187 17.5147 116.217 17.248 115.129 17.248C114.062 17.248 113.091 17.5147 112.217 18.048C111.363 18.56 110.681 19.264 110.169 20.16C109.678 21.056 109.433 22.08 109.433 23.232C109.433 24.3627 109.678 25.3867 110.169 26.304C110.681 27.2213 111.363 27.9467 112.217 28.48C113.091 28.992 114.062 29.248 115.129 29.248ZM131.645 32C131.175 32 130.781 31.8507 130.461 31.552C130.162 31.232 130.013 30.8373 130.013 30.368V16.128C130.013 15.6373 130.162 15.2427 130.461 14.944C130.781 14.6453 131.175 14.496 131.645 14.496C132.135 14.496 132.53 14.6453 132.829 14.944C133.127 15.2427 133.277 15.6373 133.277 16.128V30.368C133.277 30.8373 133.127 31.232 132.829 31.552C132.53 31.8507 132.135 32 131.645 32ZM131.645 11.648C131.069 11.648 130.567 11.4453 130.141 11.04C129.735 10.6133 129.533 10.112 129.533 9.536C129.533 8.96 129.735 8.46933 130.141 8.064C130.567 7.63733 131.069 7.424 131.645 7.424C132.221 7.424 132.711 7.63733 133.117 8.064C133.543 8.46933 133.757 8.96 133.757 9.536C133.757 10.112 133.543 10.6133 133.117 11.04C132.711 11.4453 132.221 11.648 131.645 11.648Z" fill="#14223E"/>
<path fill-rule="evenodd" clip-rule="evenodd" d="M35 38.4375V7.96875C35 6.60375 34.995 5.71875 34.88 5.07C34.77 4.46062 34.5925 4.26938 34.45 4.1625C34.3075 4.05563 34.0525 3.9225 33.24 3.84C32.3725 3.75375 31.195 3.75 29.375 3.75C27.555 3.75 26.375 3.75375 25.51 3.84C24.6975 3.9225 24.4425 4.05563 24.3 4.1625C24.1575 4.26938 23.98 4.46062 23.87 5.07C23.755 5.72063 23.75 6.60375 23.75 7.96875V38.4375H35Z" fill="#FDA312"/>
<path opacity="0.7" d="M20.25 10.4062C20.25 10.0333 20.0525 9.6756 19.7008 9.41188C19.3492 9.14816 18.8723 9 18.375 9H10.875C10.3777 9 9.90081 9.14816 9.54917 9.41188C9.19754 9.6756 9 10.0333 9 10.4062V32.4375H20.25V10.4062ZM50.25 19.7812C50.25 19.4083 50.0525 19.0506 49.7008 18.7869C49.3492 18.5232 48.8723 18.375 48.375 18.375H40.875C40.3777 18.375 39.9008 18.5232 39.5492 18.7869C39.1975 19.0506 39 19.4083 39 19.7812V32.4375H50.25V19.7812Z" fill="#FDA312"/>
</svg>
